<svg width="24" height="24" viewBox="0 0 24 24" fill="none" xmlns="http://www.w3.org/2000/svg">
<path fill-rule="evenodd" clip-rule="evenodd" d="M6.49999 18.4L7.99999 13.79L3.99999 10.79C3.65811 10.525 3.52536 10.0703 3.67099 9.66298C3.81661 9.25568 4.2076 8.98818 4.63999 9.00002H9.52999L11.05 4.39002C11.1849 3.97965 11.568 3.70227 12 3.70227C12.432 3.70227 12.8151 3.97965 12.95 4.39002L14.47 9.00002H19.36C19.7924 8.98818 20.1834 9.25568 20.329 9.66298C20.4746 10.0703 20.3419 10.525 20 10.79L16.08 13.79L16.18 14.1C16.3484 14.6275 16.0574 15.1916 15.53 15.36C15.0026 15.5285 14.4384 15.2375 14.27 14.71L13.75 13.06L16.41 11H13L12 7.90002L11 11H7.58999L10.28 13.06L9.27999 16.17L12 14.25L17.13 17.88C17.3469 18.0346 17.4931 18.2694 17.5363 18.5322C17.5794 18.795 17.516 19.0642 17.36 19.28C17.0416 19.7288 16.4204 19.8361 15.97 19.52L12 16.7L7.99999 19.52C7.64927 19.7447 7.19603 19.7284 6.86229 19.4793C6.52856 19.2301 6.38422 18.8001 6.49999 18.4Z" fill="#FD9822"/>
</svg>
