<svg xmlns="http://www.w3.org/2000/svg" width="24" height="24" fill="none" viewBox="0 0 24 24"><path fill="#b74414" fill-rule="evenodd" d="M19.75 21H4.25003C3.5528 20.998 2.90696 20.633 2.54554 20.0368C2.18412 19.4405 2.1593 18.6991 2.48003 18.08L10.23 3.23001C10.5758 2.57274 11.2573 2.16119 12 2.16119C12.7427 2.16119 13.4242 2.57274 13.77 3.23001L14.27 4.23001C14.5267 4.7188 14.3387 5.32309 13.85 5.58001C13.3612 5.83666 12.7569 5.64866 12.5 5.16001L12 4.16001L4.25003 19H19.75L14.35 8.66001C14.1087 8.1734 14.3 7.58316 14.7808 7.33053C15.2616 7.0779 15.8562 7.25525 16.12 7.73001L21.52 18.07C21.6687 18.3576 21.7475 18.6762 21.75 19C21.75 19.5304 21.5393 20.0392 21.1642 20.4142C20.7892 20.7893 20.2805 21 19.75 21Z" clip-rule="evenodd" class="colorFD9822 svgShape"></path><path fill="#515252" fill-rule="evenodd" d="M11.0029 13.0806C11.0029 13.6329 11.4506 14.0806 12.0029 14.0806C12.5552 14.0806 13.0029 13.6329 13.0029 13.0806V10.0806C13.0029 9.52831 12.5552 9.0806 12.0029 9.0806C11.4506 9.0806 11.0029 9.52831 11.0029 10.0806V13.0806ZM11 16C11 16.5523 11.4477 17 12 17C12.5522 17 13 16.5523 13 16C13.0023 15.5937 12.7587 15.2264 12.3834 15.0706C12.0082 14.9148 11.576 15.0015 11.29 15.29C11.1028 15.4787 10.9984 15.7342 11 16Z" clip-rule="evenodd" class="color515252 svgShape"></path></svg>