<svg width="24" height="24" viewBox="0 0 24 24" fill="none" xmlns="http://www.w3.org/2000/svg">
<path fill-rule="evenodd" clip-rule="evenodd" d="M12 22C6.47715 22 2 17.5228 2 12C2 6.47715 6.47715 2 12 2C17.4918 1.99982 21.9561 6.42842 22 11.92C22 12.4723 21.5523 12.92 21 12.92C20.4477 12.92 20 12.4723 20 11.92C19.9561 7.533 16.3872 3.99978 12 4C8.02932 3.99955 4.6592 6.91156 4.0836 10.8403C3.508 14.769 5.90113 18.5254 9.70505 19.664C13.509 20.8026 17.5724 18.9789 19.25 15.38C19.4848 14.8803 20.0802 14.6654 20.58 14.9C21.0797 15.1348 21.2946 15.7302 21.06 16.23C19.4169 19.7497 15.8843 21.9995 12 22Z" fill="#333333"/>
<path fill-rule="evenodd" clip-rule="evenodd" d="M12 10C12.5523 10 13 10.4477 13 11L13 16L13.5 16C13.7761 16 14 16.2239 14 16.5C14 16.7761 13.7761 17 13.5 17L12.0027 17L12 17L11.9973 17L10.5 17C10.2239 17 10 16.7761 10 16.5C10 16.2239 10.2239 16 10.5 16L11 16L11 16L11 12L10.5 12C10.2239 12 10 11.7761 10 11.5C10 11.2239 10.2239 11 10.5 11L11 11C11 10.4477 11.4477 10 12 10ZM13 8C13 7.44772 12.5523 7 12 7C11.4477 7 11 7.44772 11 8C11 8.55228 11.4477 9 12 9C12.5523 9 13 8.55229 13 8Z" fill="#0066CB"/>
</svg>
