<svg width="24" height="24" viewBox="0 0 24 24" fill="none" xmlns="http://www.w3.org/2000/svg">
<path fill-rule="evenodd" clip-rule="evenodd" d="M3 19C3 20.6569 4.34315 22 6 22H18C19.6569 22 21 20.6569 21 19V7C21 5.34315 19.6569 4 18 4C17.4477 4 17 4.44772 17 5C17 5.55228 17.4477 6 18 6C18.5523 6 19 6.44772 19 7V19C19 19.5523 18.5523 20 18 20H6C5.44772 20 5 19.5523 5 19V7C5 6.44772 5.44772 6 6 6H9H10H11V5V4C11 3.44772 11.4477 3 12 3C12.5523 3 13 3.44772 13 4V5C13 5.55228 13.4477 6 14 6C14.5523 6 15 5.55228 15 5V4C15 2.34315 13.6569 1 12 1C10.3431 1 9 2.34315 9 4H6C4.34315 4 3 5.34315 3 7V19Z" fill="#515252"/>
<path fill-rule="evenodd" clip-rule="evenodd" d="M11 17.1C10.7342 17.1015 10.4787 16.9972 10.29 16.81L7.73998 14.24C7.48632 13.9863 7.38725 13.6166 7.4801 13.2701C7.57294 12.9236 7.84359 12.6529 8.1901 12.5601C8.5366 12.4673 8.90632 12.5663 9.15998 12.82L10.92 14.59L14.76 9.63998C14.9687 9.33209 15.3312 9.16553 15.7008 9.20761C16.0704 9.24969 16.3861 9.49346 16.5203 9.84041C16.6545 10.1873 16.585 10.5801 16.34 10.86L11.81 16.71C11.6344 16.9393 11.3682 17.0815 11.08 17.1H11Z" fill="#3AB800"/>
</svg>
