<svg xmlns="http://www.w3.org/2000/svg" width="24" height="24" fill="none" viewBox="0 0 24 24"><path fill="#515252" fill-rule="evenodd" d="M7 22H17C18.6569 22 20 20.6569 20 19V11C20 10.4477 19.5523 10 19 10C18.4477 10 18 10.4477 18 11V19C18 19.5523 17.5523 20 17 20H7C6.44772 20 6 19.5523 6 19V5C6 4.44772 6.44772 4 7 4H14V6V7V8H15H16H19C19.5523 8 20 7.55228 20 7C20 6.44772 19.5523 6 19 6H16V3C16 2.44772 15.5523 2 15 2H7C5.34315 2 4 3.34315 4 5V19C4 20.6569 5.34315 22 7 22Z" clip-rule="evenodd" class="color515252 svgShape"></path><path fill="#878786" fill-rule="evenodd" d="M9 13H15C15.5523 13 16 12.5523 16 12C16 11.4477 15.5523 11 15 11H9C8.44772 11 8 11.4477 8 12C8 12.5523 8.44772 13 9 13ZM9 17H15C15.5523 17 16 16.5523 16 16C16 15.4477 15.5523 15 15 15H9C8.44772 15 8 15.4477 8 16C8 16.5523 8.44772 17 9 17Z" clip-rule="evenodd" class="color027FFF svgShape"></path></svg>