<svg xmlns="http://www.w3.org/2000/svg" width="24" height="24" fill="none" viewBox="0 0 24 24">
<path fill="#ff8066" fill-rule="evenodd" d="M12 15C11.4477 15 11 14.5523 11 14V13C11 12.4477 11.4477 12 12 12 13.1046 12 14 11.1046 14 9.99999 14 8.89542 13.1046 7.99999 12 7.99999 10.8954 7.99999 10 8.89542 10 9.99999 10 10.5523 9.55229 11 9 11 8.44772 11 8 10.5523 8 9.99999 7.99845 7.92092 9.5899 6.18729 11.6615 6.01136 13.7331 5.83542 15.5941 7.27584 15.9432 9.32539 16.2923 11.3749 15.0131 13.3502 13 13.87V14C13 14.5523 12.5523 15 12 15zM12 18C11.4477 18 11 17.5523 11 17 11 16.4477 11.4477 16 12 16 12.5523 16 13 16.4477 13 17 13 17.5523 12.5523 18 12 18z" clip-rule="evenodd" class="color027FFF svgShape"></path>

<path fill="#ff8066" fill-rule="evenodd" d="M3 22C2.66827 22.0003 2.35797 21.8361 2.17165 21.5617C1.98534 21.2872 1.94726 20.9382 2.07 20.63L3.45 17.18C1.09524 13.2916 1.65946 8.30415 4.82337 5.04003C7.98727 1.7759 12.9547 1.05649 16.9146 3.28888C20.8746 5.52128 22.8306 10.1437 21.6757 14.5404C20.5209 18.9371 16.5459 22.0017 12 22C10.3721 21.9992 8.76904 21.601 7.33 20.84C7.01382 20.6721 6.81124 20.3483 6.79856 19.9905C6.78589 19.6327 6.96506 19.2953 7.26856 19.1055C7.57207 18.9156 7.95382 18.9021 8.27 19.07C9.41824 19.6812 10.6992 20.0006 12 20C16.4183 20 20 16.4183 20 12C20 7.58173 16.4183 4.00001 12 4.00001C7.58172 4.00001 4 7.58173 4 12C3.99528 13.611 4.48384 15.1849 5.4 16.51C5.58867 16.7868 5.62621 17.1397 5.5 17.45L4.61 19.66C4.82249 19.7685 4.98918 19.9494 5.08 20.17C5.17838 20.4166 5.17463 20.6923 5.06958 20.9361C4.96453 21.18 4.7668 21.3721 4.52 21.47L3.37 21.93C3.25221 21.9766 3.12665 22.0003 3 22Z" clip-rule="evenodd" class="color027FFF svgShape"></path></svg>