<svg width="24" height="24" viewBox="0 0 24 24" fill="none" xmlns="http://www.w3.org/2000/svg">
<path fill-rule="evenodd" clip-rule="evenodd" d="M17 22H6C4.34315 22 3 20.6569 3 19V5C3 3.34315 4.34315 2 6 2H14C14.5523 2 15 2.44772 15 3C15 3.55228 14.5523 4 14 4H6C5.44772 4 5 4.44772 5 5V19C5 19.5523 5.44772 20 6 20H17C17.5523 20 18 19.5523 18 19V14C18 13.4477 18.4477 13 19 13C19.5523 13 20 13.4477 20 14V19C20 20.6569 18.6569 22 17 22Z" fill="#515252"/>
<path fill-rule="evenodd" clip-rule="evenodd" d="M7.21612 17.9535C7.41023 18.1845 7.69827 18.3155 7.99995 18.31C8.06724 18.3133 8.13464 18.3065 8.19995 18.29L11.7299 17.59C11.9239 17.5493 12.1015 17.4518 12.2399 17.31L21.4399 8.12001C22.6098 6.94874 22.6098 5.05128 21.4399 3.88001C20.2482 2.7511 18.3817 2.7511 17.1899 3.88001L15.8399 5.23001C15.6749 5.39606 15.5801 5.6056 15.5556 5.8216C15.4282 6.15449 15.4843 6.54313 15.7299 6.83001L16.5399 7.64001C16.727 7.83086 16.9827 7.9389 17.2499 7.94001C17.6562 7.94237 18.0235 7.6987 18.1793 7.32349C18.3351 6.94827 18.2484 6.5161 17.9599 6.23001L17.8058 6.07774L18.5899 5.27001C18.98 4.88228 19.6099 4.88228 19.9999 5.27001C20.1893 5.45777 20.2957 5.71337 20.2957 5.98001C20.2957 6.24664 20.1893 6.50224 19.9999 6.69001L10.9999 15.69L9.26995 16L9.62995 14.27L14.2099 9.68001C14.5977 9.28997 14.5977 8.66004 14.2099 8.27001C13.8199 7.88228 13.19 7.88228 12.7999 8.27001L7.99995 13.07C7.85446 13.2072 7.75345 13.3848 7.70995 13.58L6.99995 17.12C6.94257 17.4162 7.02201 17.7225 7.21612 17.9535Z" fill="#027FFF"/>
</svg>
