<svg id="SvgjsSvg1001" width="288" height="288" xmlns="http://www.w3.org/2000/svg" version="1.1" xmlns:xlink="http://www.w3.org/1999/xlink" xmlns:svgjs="http://svgjs.com/svgjs"><defs id="SvgjsDefs1002"></defs><g id="SvgjsG1008" transform="matrix(1,0,0,1,0,0)"><svg xmlns="http://www.w3.org/2000/svg" width="288" height="288" fill="none" viewBox="0 0 25 25"><path fill="#ffc72c" fill-rule="evenodd" d="M18.4512 23.5H6.45117C4.79432 23.5 3.45117 22.1569 3.45117 20.5V7.5C3.45117 6.94772 3.89889 6.5 4.45117 6.5C5.00346 6.5 5.45117 6.94772 5.45117 7.5V20.5C5.45117 21.0523 5.89889 21.5 6.45117 21.5H18.4512C19.0035 21.5 19.4512 21.0523 19.4512 20.5V12.5C19.4512 11.9477 19.8989 11.5 20.4512 11.5C21.0035 11.5 21.4512 11.9477 21.4512 12.5V20.5C21.4512 22.1569 20.108 23.5 18.4512 23.5Z" clip-rule="evenodd" class="color515252 svgShape"></path><path fill="#ffc72c" fill-rule="evenodd" d="M6.45117 10.5C4.79432 10.5 3.45117 9.15685 3.45117 7.5V5.5C3.45117 3.84315 4.79432 2.5 6.45117 2.5H8.45117C9.00346 2.5 9.45117 2.94772 9.45117 3.5V7.5C9.45117 9.15685 8.10803 10.5 6.45117 10.5ZM6.45117 4.5C5.89889 4.5 5.45117 4.94772 5.45117 5.5V7.5C5.45117 8.05228 5.89889 8.5 6.45117 8.5C7.00346 8.5 7.45117 8.05228 7.45117 7.5V4.5H6.45117Z" clip-rule="evenodd" class="colorFA5F5B svgShape"></path><path fill="#ffc72c" fill-rule="evenodd" d="M10.4512 10.5C8.79432 10.5 7.45117 9.15685 7.45117 7.5V3.5C7.45117 2.94772 7.89889 2.5 8.45117 2.5H12.4512C13.0035 2.5 13.4512 2.94772 13.4512 3.5V7.5C13.4512 9.15685 12.108 10.5 10.4512 10.5ZM9.45117 4.5V7.5C9.45117 8.05228 9.89889 8.5 10.4512 8.5C11.0035 8.5 11.4512 8.05228 11.4512 7.5V4.5H9.45117Z" clip-rule="evenodd" class="colorFA5F5B svgShape"></path><path fill="#ffc72c" fill-rule="evenodd" d="M14.4512 10.5C12.7943 10.5 11.4512 9.15685 11.4512 7.5V3.5C11.4512 2.94772 11.8989 2.5 12.4512 2.5H16.4512C16.7164 2.5 16.9707 2.60536 17.1583 2.79289C17.3458 2.98043 17.4512 3.23478 17.4512 3.5V7.5C17.4512 9.15685 16.108 10.5 14.4512 10.5ZM13.4512 4.5V7.5C13.4512 8.05228 13.8989 8.5 14.4512 8.5C15.0035 8.5 15.4512 8.05228 15.4512 7.5V4.5H13.4512Z" clip-rule="evenodd" class="colorFA5F5B svgShape"></path><path fill="#ffc72c" fill-rule="evenodd" d="M18.4512 10.5C16.7943 10.5 15.4512 9.15685 15.4512 7.5V3.5C15.4512 2.94772 15.8989 2.5 16.4512 2.5H18.4512C20.108 2.5 21.4512 3.84315 21.4512 5.5V7.5C21.4512 9.15685 20.108 10.5 18.4512 10.5ZM17.4512 4.5V7.5C17.4512 8.05228 17.8989 8.5 18.4512 8.5C19.0035 8.5 19.4512 8.05228 19.4512 7.5V5.5C19.4512 4.94772 19.0035 4.5 18.4512 4.5H17.4512Z" clip-rule="evenodd" class="colorFA5F5B svgShape"></path><path fill="#ffc72c" fill-rule="evenodd" d="M16.4512 19.5H12.4512C11.8989 19.5 11.4512 19.0523 11.4512 18.5C11.4512 17.9477 11.8989 17.5 12.4512 17.5H15.4512V14.5H9.45117V18.5C9.45117 19.0523 9.00346 19.5 8.45117 19.5C7.89889 19.5 7.45117 19.0523 7.45117 18.5V13.5C7.45117 12.9477 7.89889 12.5 8.45117 12.5H16.4512C17.0035 12.5 17.4512 12.9477 17.4512 13.5V18.5C17.4512 19.0523 17.0035 19.5 16.4512 19.5Z" clip-rule="evenodd" class="color515252 svgShape"></path></svg></g></svg>