<svg width="24" height="24" viewBox="0 0 24 24" fill="none" xmlns="http://www.w3.org/2000/svg">
<path fill-rule="evenodd" clip-rule="evenodd" d="M12 5.00001C11.4477 5.00001 11 4.5523 11 4.00001V2.73001C11 2.17773 11.4477 1.73001 12 1.73001C12.5523 1.73001 13 2.17773 13 2.73001V4.00001C13 4.5523 12.5523 5.00001 12 5.00001Z" fill="#F1E730"/>
<path fill-rule="evenodd" clip-rule="evenodd" d="M16.9999 7C16.7341 7.00154 16.4787 6.89719 16.2899 6.71C16.1006 6.52224 15.9941 6.26664 15.9941 6C15.9941 5.73336 16.1006 5.47777 16.2899 5.29L17.2899 4.29C17.6821 3.89788 18.3178 3.89788 18.7099 4.29C19.1021 4.68212 19.1021 5.31788 18.7099 5.71L17.7099 6.71C17.5212 6.89719 17.2657 7.00154 16.9999 7Z" fill="#F1E730"/>
<path fill-rule="evenodd" clip-rule="evenodd" d="M6.99994 7C6.73414 7.00154 6.47866 6.89719 6.28994 6.71L5.28994 5.71C4.89782 5.31788 4.89782 4.68212 5.28994 4.29C5.68206 3.89788 6.31782 3.89788 6.70994 4.29L7.70994 5.29C7.89925 5.47777 8.00574 5.73336 8.00574 6C8.00574 6.26664 7.89925 6.52224 7.70994 6.71C7.52122 6.89719 7.26574 7.00154 6.99994 7Z" fill="#F1E730"/>
<path fill-rule="evenodd" clip-rule="evenodd" d="M12 22C10.272 22.0044 8.76466 20.8275 8.34995 19.15L7.86995 17.23C5.61866 15.318 4.9741 12.1107 6.31194 9.47737C7.64977 6.84406 10.6202 5.47332 13.4919 6.16404C16.3637 6.85476 18.3859 9.42634 18.38 12.38C18.3899 14.2511 17.565 16.0293 16.13 17.23L15.65 19.15C15.2352 20.8275 13.7279 22.0044 12 22ZM9.79995 16.69L10.29 18.69C10.482 19.4785 11.1884 20.0335 12 20.0335C12.8115 20.0335 13.5179 19.4785 13.71 18.69L14.21 16.69C14.2256 16.3982 14.3681 16.1278 14.6 15.95C15.7227 15.1339 16.385 13.828 16.38 12.44C16.3959 10.1668 14.67 8.25922 12.4066 8.04824C10.1431 7.83726 8.09444 9.39299 7.68995 11.63C7.39345 13.2607 8.05827 14.9169 9.39995 15.89C9.65176 16.0788 9.79995 16.3752 9.79995 16.69Z" fill="#F1E730"/>
<path fill-rule="evenodd" clip-rule="evenodd" d="M15 18H13.08C12.5277 18 12.08 17.5523 12.08 17C12.08 16.4477 12.5277 16 13.08 16H15C15.5522 16 16 16.4477 16 17C16 17.5523 15.5522 18 15 18Z" fill="#F1E730"/>
</svg>
